<?xml version="1.0" encoding="UTF-8"?>
<svg version="1.1" xmlns="http://www.w3.org/2000/svg" width="1168" height="784">
<rect x="0" y="0" width="1168" height="784" rx="392" ry="392" fill="#ea580c"/>
<path d="M0 0 C1.58809227 -0.00717545 1.58809227 -0.00717545 3.20826721 -0.01449585 C5.43972261 -0.0178872 7.67122822 -0.00873865 9.90258789 0.01220703 C13.30273232 0.03895493 16.69956765 0.01244484 20.09960938 -0.01953125 C22.27474682 -0.0162265 24.44988221 -0.00981892 26.625 0 C27.63356552 -0.01012115 28.64213104 -0.02024231 29.68125916 -0.03067017 C36.14786273 0.07573709 41.07715458 1.10622146 45.87890625 5.6640625 C50.84771256 11.18668437 50.43263979 16.4814777 50.36132812 23.52514648 C50.36524063 24.71446777 50.36915314 25.90378906 50.3731842 27.12915039 C50.38071153 30.37937043 50.3709333 33.6290139 50.35468483 36.87918353 C50.34288599 40.28856582 50.3568326 43.69782654 50.36901855 47.10719299 C50.39800384 56.50792759 50.3873329 65.90853815 50.37631989 75.30929565 C50.36663372 83.92575299 50.36541752 92.54199147 50.39620066 101.15841156 C50.40735733 104.54850389 50.41001564 107.93816788 50.39305115 111.32824516 C50.37655802 115.11026633 50.38406098 118.89156337 50.39648438 122.67358398 C50.38516983 123.78913162 50.37385529 124.90467926 50.36219788 126.05403137 C50.41273849 132.49199757 51.03509901 136.4324677 54.87890625 141.6640625 C58.85954907 145.35343877 61.8633483 146.7776712 67.25512695 146.82519531 C68.5771386 146.83960663 68.5771386 146.83960663 69.92585754 146.85430908 C70.87587143 146.85855896 71.82588531 146.86280884 72.8046875 146.8671875 C74.27520821 146.87573761 74.27520821 146.87573761 75.7754364 146.88446045 C77.85084962 146.89390854 79.92627783 146.90044367 82.00170898 146.90429688 C85.16872509 146.91399306 88.3350896 146.94501463 91.50195312 146.9765625 C93.5195274 146.98309371 95.53710631 146.98834372 97.5546875 146.9921875 C98.49862869 147.0045343 99.44256989 147.0168811 100.41511536 147.02960205 C106.39658121 147.00945048 110.91440775 146.36802312 115.5234375 142.1640625 C118.85622457 137.8838276 120.00261758 135.0788028 120.01020813 129.71881104 C120.01421631 128.69827637 120.01822449 127.6777417 120.02235413 126.62628174 C120.02182541 125.50727478 120.02129669 124.38826782 120.02075195 123.23535156 C120.02422638 122.05622192 120.02770081 120.87709229 120.03128052 119.66223145 C120.03864143 117.09713464 120.04398502 114.53203144 120.04757118 111.96692657 C120.05348768 107.90692402 120.07003494 103.84700884 120.08891296 99.78704834 C120.09525033 98.39616781 120.10157595 97.00528722 120.10789013 95.61440659 C120.11105594 94.91784313 120.11422175 94.22127967 120.1174835 93.50360823 C120.15952736 84.05287677 120.19252374 74.60218593 120.20483398 65.15136719 C120.21322482 58.77503373 120.23575371 52.39891668 120.27418965 46.02269149 C120.29391749 42.65050027 120.30636598 39.2786323 120.30135536 35.9063797 C120.29900413 32.1407061 120.32115801 28.37590704 120.34887695 24.61035156 C120.34227554 23.49944153 120.33567413 22.38853149 120.32887268 21.24395752 C120.40642773 14.82555688 121.05334244 10.88307812 124.87890625 5.6640625 C128.84664393 1.98664709 131.83505261 0.54233123 137.21371937 0.52984142 C138.5495276 0.52315466 138.5495276 0.52315466 139.91232187 0.51633281 C140.89168244 0.51651717 141.87104301 0.51670153 142.88008118 0.51689148 C144.43953477 0.51137645 144.43953477 0.51137645 146.03049248 0.50575 C149.53115682 0.49469391 153.0317915 0.49086608 156.5324707 0.48706055 C159.03546239 0.48079744 161.53845314 0.47415078 164.04144287 0.46714783 C171.56419874 0.44790819 179.0869494 0.43731857 186.6097236 0.42842004 C190.15192282 0.42403679 193.69412055 0.41867013 197.23631859 0.41343117 C209.01022309 0.39642053 220.78412667 0.38192566 232.55804157 0.37468243 C235.61315728 0.37277253 238.66827299 0.37085219 241.72338867 0.36889648 C242.48272507 0.36841274 243.24206147 0.367929 244.02440806 0.3674306 C256.32924358 0.35912764 268.63398196 0.33378553 280.93877504 0.30131581 C293.57017956 0.26825574 306.2015347 0.25023468 318.83298272 0.24703819 C325.92580355 0.24487226 333.01848268 0.23611151 340.11126137 0.21057701 C346.7818483 0.18661788 353.4521359 0.18303765 360.12277222 0.19333839 C362.5729628 0.19383538 365.02316569 0.18746746 367.4733181 0.17378235 C370.81478104 0.15616096 374.15531776 0.16312223 377.4967804 0.17631531 C378.4694488 0.16534606 379.44211721 0.15437682 380.44426042 0.14307517 C387.21330072 0.20773107 390.65810397 1.46621131 395.5234375 6.296875 C398.59168885 10.2168483 399.99694687 12.23424581 400.0559082 17.17041016 C400.06874344 18.10543365 400.08157867 19.04045715 400.09480286 20.0038147 C400.10588326 21.5255983 400.10588326 21.5255983 400.1171875 23.078125 C400.12525925 24.12173187 400.13333099 25.16533875 400.14164734 26.24057007 C400.155498 28.4547967 400.16621575 30.66904477 400.17407227 32.88330078 C400.19123111 36.2546504 400.23510288 39.62500572 400.27929688 42.99609375 C400.28942851 45.14843029 400.29794314 47.30077518 400.3046875 49.453125 C400.32219559 50.45550201 400.33970367 51.45787903 400.35774231 52.4906311 C400.33862109 58.72546464 399.49058627 63.4791626 395.87890625 68.6640625 C391.75832403 72.58364071 388.6281417 73.78890267 383.01631165 73.78863525 C381.51291985 73.79247978 381.51291985 73.79247978 379.97915649 73.79640198 C378.88042206 73.79430222 377.78168762 73.79220245 376.6496582 73.79003906 C374.9126339 73.79284126 374.9126339 73.79284126 373.14051819 73.79570007 C370.62125687 73.79970845 368.10199191 73.80177931 365.58272743 73.80216217 C361.59386167 73.80470235 357.60508727 73.81615225 353.61625671 73.83172607 C352.94254148 73.83429893 352.26882625 73.83687178 351.57469541 73.8395226 C350.19695847 73.84478925 348.8192216 73.85007474 347.44148481 73.85537863 C338.15669509 73.89045442 328.87201971 73.91704406 319.5871582 73.91455078 C313.3224862 73.91295897 307.05812899 73.92907395 300.79355782 73.96525741 C297.48103002 73.98366915 294.16914328 73.99035144 290.85656166 73.98078156 C287.15559485 73.97115777 283.45597244 73.99234999 279.75512695 74.02050781 C278.66651367 74.01031113 277.57790039 74.00011444 276.45629883 73.98960876 C269.65155014 74.08228601 265.15164606 75.25462481 259.87890625 79.6640625 C256.34075637 83.43048012 255.75997924 87.07385436 255.73706055 92.12207031 C255.73002609 92.99688049 255.72299164 93.87169067 255.71574402 94.77301025 C255.7094976 96.18087799 255.7094976 96.18087799 255.703125 97.6171875 C255.67992249 99.61850005 255.65580498 101.61980217 255.63085938 103.62109375 C255.5958013 106.76553296 255.56642538 109.90958865 255.55297852 113.05419922 C255.53743462 116.09649762 255.49718225 119.13768534 255.453125 122.1796875 C255.45503342 123.11016907 255.45694183 124.04065063 255.45890808 124.99932861 C255.34799966 130.96759011 254.39529545 135.72890667 250.87890625 140.6640625 C244.94910926 145.38369684 240.24343897 145.79587583 232.8984375 145.8046875 C231.07615944 145.82302234 229.25389348 145.84259327 227.43164062 145.86328125 C224.56579255 145.8921822 221.7007198 145.91406091 218.8347168 145.91455078 C216.06359481 145.91790362 213.29424882 145.95256581 210.5234375 145.9921875 C209.25425224 145.98158295 209.25425224 145.98158295 207.95942688 145.97076416 C201.82208004 146.09505675 197.51120328 147.54710505 192.87890625 151.6640625 C188.41939272 156.69562363 188.32696859 162.01032967 188.41015625 168.47265625 C188.40310669 169.39820816 188.39605713 170.32376007 188.38879395 171.27735901 C188.35946144 175.20955155 188.37590845 179.14123957 188.38818359 183.07348633 C188.39057463 185.95683937 188.36959418 188.83940174 188.34765625 191.72265625 C188.36463562 193.03864052 188.36463562 193.03864052 188.38195801 194.38121033 C188.33446421 200.2252308 187.53178794 204.95825902 183.87890625 209.6640625 C178.51342519 214.65956508 173.24850994 215.36710644 166.15625 215.23046875 C164.79978111 215.23892067 164.79978111 215.23892067 163.41590881 215.24754333 C160.54886946 215.26389442 157.68339001 215.24853265 154.81640625 215.2265625 C151.9460001 215.20991477 149.07661485 215.20093967 146.20619202 215.21629333 C144.42757312 215.22550363 142.64873608 215.21664366 140.87034607 215.18666077 C134.3396628 215.21536591 130.0909204 216.56193992 125.35939026 221.1315918 C121.28803356 226.00218824 121.18692327 230.61234127 121.27734375 236.76171875 C121.26933746 237.71421005 121.26133118 238.66670135 121.25308228 239.64805603 C121.23010657 242.67466384 121.23944201 245.69991984 121.25390625 248.7265625 C121.25776085 251.75652146 121.25426598 254.78588791 121.23330688 257.81578064 C121.22127011 259.69559718 121.22380023 261.57558061 121.24301147 263.45533752 C121.21456291 270.13122801 119.97413785 274.30021146 115.44140625 279.4140625 C111.62272182 282.76705371 109.00916471 283.91269507 103.92729187 283.92475891 C102.43229156 283.93538612 102.43229156 283.93538612 100.90708923 283.94622803 C99.81972977 283.94375061 98.7323703 283.94127319 97.61206055 283.9387207 C95.88703812 283.9463871 95.88703812 283.9463871 94.12716675 283.95420837 C90.31910013 283.96812731 86.51121406 283.96714561 82.703125 283.96484375 C80.05760124 283.96872985 77.41207811 283.97306434 74.76655579 283.97782898 C69.21748247 283.9860419 63.66846007 283.98513452 58.11938477 283.97973633 C51.71530299 283.97370186 45.31144121 283.98599446 38.90739697 284.0073064 C33.40150579 284.02495246 27.89568444 284.03091886 22.38976604 284.02766865 C19.10479751 284.02585972 15.82002025 284.02977392 12.53507042 284.04238319 C8.86785366 284.05473008 5.20114429 284.04796535 1.53393555 284.03637695 C0.45264877 284.04402069 -0.628638 284.05166443 -1.74269104 284.05953979 C-8.29819838 284.01379194 -13.65227058 283.58067391 -18.86328125 279.19921875 C-22.28507086 274.75089225 -23.24152244 271.6946639 -23.25810814 266.18055344 C-23.26318268 265.28229017 -23.26825722 264.3840269 -23.27348554 263.45854354 C-23.2739833 262.47567815 -23.27448106 261.49281276 -23.2749939 260.48016357 C-23.27937615 259.43291744 -23.2837584 258.38567132 -23.28827345 257.30669045 C-23.30166263 253.78616422 -23.30784057 250.26566303 -23.31396484 246.74511719 C-23.32186561 244.22551866 -23.33013454 241.70592127 -23.33874512 239.18632507 C-23.36270094 231.61800266 -23.37789151 224.04968148 -23.39080518 216.48133314 C-23.39451845 214.34330762 -23.39849156 212.20528275 -23.40255785 210.06725788 C-23.42779255 196.78621759 -23.44984235 183.50517624 -23.462286 170.22411728 C-23.46521561 167.14924872 -23.46817729 164.0743802 -23.47119141 160.99951172 C-23.47193746 160.23528421 -23.47268351 159.47105671 -23.47345217 158.68367079 C-23.48610686 146.30262796 -23.5193332 133.92172869 -23.56099324 121.54075298 C-23.60342639 108.82568722 -23.62698249 96.11069497 -23.63220656 83.3955586 C-23.6356188 76.257939 -23.64735199 69.12054392 -23.6803093 61.98299408 C-23.71126121 55.2688444 -23.71671901 48.55515429 -23.70492554 41.8409214 C-23.70470441 39.37705083 -23.71304195 36.91316234 -23.73057938 34.44935417 C-23.75322711 31.08439544 -23.74499482 27.72086175 -23.72909546 24.355896 C-23.74297755 23.38195349 -23.75685963 22.40801099 -23.77116239 21.40455508 C-23.68642731 14.1212868 -21.65694941 9.23233552 -16.5096544 4.03784919 C-11.62828074 -0.28047974 -6.2334924 -0.06242903 0 0 Z " fill="#111111" transform="translate(396.12109375,179.3359375)"/>
<path d="M0 0 C1.49283257 -0.01496269 1.49283257 -0.01496269 3.01582336 -0.03022766 C4.644506 -0.03122467 4.644506 -0.03122467 6.30609131 -0.03224182 C7.45449997 -0.04056534 8.60290863 -0.04888885 9.78611755 -0.0574646 C13.58935928 -0.08159465 17.39242954 -0.09034098 21.19573975 -0.09693909 C23.83886772 -0.10590386 26.48199516 -0.11502567 29.12512207 -0.1242981 C34.66998941 -0.14166145 40.21481306 -0.14852318 45.75970459 -0.15138245 C52.15593738 -0.15501394 58.55168921 -0.1848823 64.94777513 -0.22678703 C71.11261925 -0.26575209 77.27723065 -0.2769768 83.44219208 -0.2781086 C86.05922806 -0.28231233 88.6762644 -0.2947526 91.29322052 -0.31562614 C94.95809062 -0.34252818 98.62164111 -0.33771665 102.28656006 -0.32521057 C103.36425156 -0.34004486 104.44194305 -0.35487915 105.55229187 -0.37016296 C112.05298405 -0.30710249 117.33904011 0.47782894 122.05511475 5.27415466 C126.29652926 11.12945008 126.62967611 15.74809964 126.56977844 22.85678101 C126.57672397 23.91067396 126.5836695 24.96456692 126.5908255 26.05039603 C126.60909613 29.57563806 126.59883053 33.10020719 126.58856201 36.62547302 C126.5956204 39.15537011 126.60436508 41.68526298 126.6146698 44.21514893 C126.63484466 50.36984496 126.63618906 56.52429303 126.62804426 62.67900937 C126.62173835 67.68260604 126.62288669 72.68614884 126.62931633 77.68974495 C126.63021799 78.40252994 126.63111964 79.11531492 126.63204862 79.84969946 C126.63389987 81.29782888 126.63576243 82.74595829 126.63763618 84.19408769 C126.65420645 97.76677268 126.64550212 111.33935365 126.6286506 124.91203237 C126.61395508 137.32200473 126.62858121 149.73173495 126.65742076 162.14167612 C126.68683239 174.89302271 126.69778186 187.6442576 126.68823856 200.39563662 C126.68721604 201.83867393 126.68622143 203.28171126 126.68525505 204.72474861 C126.68477866 205.43469845 126.68430227 206.14464829 126.68381144 206.87611176 C126.6816496 211.87135866 126.69143915 216.86649955 126.70602608 221.86172295 C126.72539995 228.58991207 126.71843987 235.31757996 126.69382668 242.04577446 C126.6888148 244.51446813 126.69231818 246.98319603 126.70497513 249.45186234 C126.72089253 252.82327484 126.70596482 256.19320226 126.68330383 259.56454468 C126.69513956 260.54033177 126.70697529 261.51611886 126.71916968 262.52147526 C126.63221027 268.89414475 125.33172449 273.42543935 121.05511475 278.27415466 C115.11839733 282.77548631 108.9949332 282.86325931 101.76605225 282.80540466 C100.70399567 282.80923157 99.64193909 282.81305847 98.54769897 282.81700134 C96.31383307 282.81971122 94.07993493 282.81241516 91.84613037 282.79563904 C88.43330139 282.7741747 85.02256727 282.79549531 81.60980225 282.82102966 C79.43271429 282.81838706 77.25562763 282.81326347 75.07855225 282.80540466 C74.06280121 282.81350159 73.04705017 282.82159851 72.0005188 282.8299408 C66.02544531 282.75103198 62.61802339 282.22643743 58.05511475 278.27415466 C54.20813989 274.01129063 52.93187468 271.02166643 52.92381287 265.3289032 C52.9178006 263.7981012 52.9178006 263.7981012 52.91166687 262.2363739 C52.91219559 261.11736694 52.9127243 259.99835999 52.91326904 258.84544373 C52.9080574 257.07674927 52.9080574 257.07674927 52.90274048 255.27232361 C52.89537956 252.7072268 52.89003597 250.1421236 52.88644981 247.57701874 C52.88053332 243.51701618 52.86398606 239.457101 52.84510803 235.3971405 C52.83877067 234.00625997 52.83244504 232.61537939 52.82613087 231.22449875 C52.82296506 230.52793529 52.81979924 229.83137183 52.8165375 229.11370039 C52.77449364 219.66296893 52.74149726 210.2122781 52.72918701 200.76145935 C52.72079617 194.3851259 52.69826729 188.00900884 52.65983135 181.63278365 C52.64010351 178.26059243 52.62765502 174.88872446 52.63266563 171.51647186 C52.63501687 167.75079827 52.61286298 163.9859992 52.58514404 160.22044373 C52.59174545 159.10953369 52.59834686 157.99862366 52.60514832 156.85404968 C52.52785529 150.45733391 51.94958047 146.43538564 48.05511475 141.27415466 C42.76687971 136.66504611 36.09592006 136.6857893 29.42230225 136.74290466 C28.4268338 136.73907776 27.43136536 136.73525085 26.4057312 136.73130798 C24.31309999 136.72859947 22.2204343 136.73588587 20.12786865 136.75267029 C16.93227624 136.77414014 13.73892026 136.75280851 10.543396 136.72727966 C8.50302648 136.72992224 6.46265834 136.73504576 4.42230225 136.74290466 C3.47217255 136.73480774 2.52204285 136.72671082 1.54312134 136.71836853 C-4.12544561 136.79825513 -7.4692663 137.45416618 -11.94488525 141.27415466 C-15.56325748 145.38149611 -17.06731457 147.67336706 -17.08291626 153.10588074 C-17.09109627 154.63678848 -17.09109627 154.63678848 -17.09944153 156.19862366 C-17.10048386 157.32279694 -17.10152618 158.44697021 -17.1026001 159.60520935 C-17.10768082 160.78579926 -17.11276154 161.96638916 -17.11799622 163.18275452 C-17.13152497 166.42673634 -17.1408991 169.67070467 -17.14941359 172.91470242 C-17.16012591 176.30987692 -17.17870947 179.705004 -17.19723511 183.10014343 C-17.25916482 194.66917599 -17.3131395 206.23820425 -17.34625244 217.80735779 C-17.3646143 224.19463349 -17.39357147 230.58177028 -17.43425715 236.96894383 C-17.4553045 240.34833195 -17.47078112 243.72754515 -17.47306442 247.10700226 C-17.47796585 250.88004942 -17.5011061 254.65257951 -17.52838135 258.42552185 C-17.52537521 259.54159821 -17.52236908 260.65767456 -17.51927185 261.80757141 C-17.58748695 268.15303068 -17.94158984 273.056884 -22.4800415 277.91868591 C-26.31768931 280.85335777 -28.37123293 282.39727518 -33.1694746 282.40837574 C-34.50659631 282.41506251 -34.50659631 282.41506251 -35.87073058 282.42188436 C-36.85621282 282.4217 -37.84169506 282.42151563 -38.85704041 282.42132568 C-40.42027935 282.42684072 -40.42027935 282.42684072 -42.01509887 282.43246716 C-45.53035482 282.44353847 -49.04558125 282.44735368 -52.56085205 282.45115662 C-55.07192581 282.45741867 -57.58299864 282.46406524 -60.09407043 282.47106934 C-67.64691217 282.49032306 -75.19974872 282.50090182 -82.75260875 282.50979713 C-86.308628 282.51417891 -89.86464576 282.51954606 -93.42066383 282.524786 C-105.24084889 282.54180027 -117.06103302 282.55629421 -128.88122845 282.56353474 C-131.94956654 282.56544466 -135.01790462 282.56736499 -138.08624268 282.56932068 C-139.23018798 282.57004629 -139.23018798 282.57004629 -140.3972433 282.57078656 C-152.74996564 282.57908594 -165.1025911 282.60442038 -177.45527115 282.63690136 C-190.13523937 282.66997125 -202.81515836 282.68798348 -215.49516994 282.69117898 C-222.61542407 282.69334429 -229.73553701 282.70209573 -236.85574913 282.72764015 C-243.55423193 282.75161585 -250.25241665 282.75517327 -256.95094872 282.74487877 C-259.41039372 282.74438213 -261.86985104 282.75074002 -264.32925797 282.76443481 C-267.68574923 282.78207991 -271.04132059 282.77508304 -274.39781189 282.76190186 C-275.85930484 282.77835572 -275.85930484 282.77835572 -277.3503229 282.79514199 C-283.41034514 282.73764825 -286.99992837 281.84885827 -291.94488525 278.27415466 C-295.39374305 273.82694329 -297.04823792 270.34364431 -297.13775635 264.74607849 C-297.15381927 263.83115128 -297.1698822 262.91622406 -297.18643188 261.97357178 C-297.23107484 257.78463101 -297.27196062 253.5958464 -297.29498291 249.40672302 C-297.31151814 247.20218837 -297.33877574 244.99770679 -297.37701416 242.79344177 C-297.43199511 239.60574179 -297.45369142 236.41929728 -297.46832275 233.23118591 C-297.49099213 232.25381973 -297.5136615 231.27645355 -297.53701782 230.26947021 C-297.51730545 223.83233481 -296.47053676 219.0420008 -291.94488525 214.27415466 C-285.89984263 208.7530431 -281.13803498 208.56504962 -273.13800049 208.66233826 C-271.96643402 208.65667343 -270.79486755 208.65100861 -269.58779907 208.64517212 C-265.72603097 208.63169821 -261.86520575 208.65259586 -258.003479 208.67259216 C-255.31498143 208.67016265 -252.62653894 208.6593517 -249.93806458 208.64833069 C-242.86627995 208.62388869 -235.79476378 208.62961918 -228.72296143 208.64213562 C-218.07451529 208.66074851 -207.42612017 208.65581778 -196.77771145 208.62210143 C-192.14948336 208.60876764 -187.52171339 208.62091185 -182.89347839 208.63825989 C-180.4697764 208.63531215 -178.04607514 208.63165763 -175.62237549 208.62718201 C-174.5235051 208.63647232 -173.4246347 208.64576263 -172.29246521 208.65533447 C-165.93432474 208.62209774 -161.00725446 208.35610394 -156.28387451 203.6025238 C-152.69101002 197.9560102 -152.27587179 193.31128853 -152.41363525 186.71165466 C-152.41037231 185.72092957 -152.40710938 184.73020447 -152.40374756 183.7094574 C-152.39395996 180.56379904 -152.41544727 177.41967526 -152.44488525 174.27415466 C-152.48369016 170.12775499 -152.48979177 165.98317754 -152.47613525 161.83665466 C-152.50556213 160.42694397 -152.50556213 160.42694397 -152.5355835 158.98875427 C-152.51023175 152.51793879 -151.22994346 148.2033511 -146.94488525 143.27415466 C-141.9647926 138.72232661 -137.64372842 138.73579779 -131.23394775 138.84056091 C-129.33030111 138.83095427 -127.42665529 138.82118355 -125.52301025 138.81126404 C-122.5453752 138.81985148 -119.56795697 138.83666904 -116.59039307 138.85887146 C-113.70032137 138.87346053 -110.81147682 138.85809191 -107.92144775 138.84056091 C-107.04098785 138.85704178 -106.16052795 138.87352264 -105.25338745 138.89050293 C-99.00435033 138.84047381 -94.76021114 137.32501022 -89.94488525 133.27415466 C-87.98987669 130.7443476 -87.98987669 130.7443476 -86.94488525 128.27415466 C-86.61488525 127.61415466 -86.28488525 126.95415466 -85.94488525 126.27415466 C-85.85732405 124.86607803 -85.83010549 123.4539864 -85.83477783 122.04319763 C-85.83419876 121.16823639 -85.83361969 120.29327515 -85.83302307 119.39179993 C-85.83618782 117.96844833 -85.83618782 117.96844833 -85.8394165 116.51634216 C-85.82595375 114.50851896 -85.81092939 112.50070574 -85.79449463 110.49290466 C-85.77171444 107.32621366 -85.75733992 104.16064284 -85.76983643 100.99388123 C-85.77868905 97.93805176 -85.74965837 94.88444186 -85.7144165 91.82884216 C-85.72664749 90.89208649 -85.73887848 89.95533081 -85.7514801 88.9901886 C-85.62713664 82.18796909 -83.77438076 78.09164711 -78.94488525 73.27415466 C-75.07005513 69.97977744 -71.92048507 69.16400988 -66.91412354 69.11643982 C-66.13296173 69.10617767 -65.35179993 69.09591553 -64.54696655 69.08534241 C-63.293741 69.07439041 -63.293741 69.07439041 -62.01519775 69.06321716 C-60.23263646 69.03515038 -58.45008449 69.00648593 -56.6675415 68.97727966 C-53.86757655 68.93603873 -51.06778614 68.89913491 -48.26763916 68.87278748 C-45.55813012 68.84510533 -42.8494032 68.79923978 -40.14019775 68.75071716 C-39.30876251 68.74746429 -38.47732727 68.74421143 -37.62069702 68.74085999 C-31.98660613 68.62233173 -27.62262053 67.71655453 -23.300354 63.77415466 C-20.25758186 59.8663804 -18.82700983 57.13305316 -18.80303955 52.20506287 C-18.7960051 51.39023941 -18.78897064 50.57541595 -18.78172302 49.73590088 C-18.77547661 48.41872322 -18.77547661 48.41872322 -18.769104 47.07493591 C-18.74589621 45.20708622 -18.72177849 43.33924765 -18.69683838 41.47142029 C-18.6618109 38.53327591 -18.63242597 35.59553852 -18.61895752 32.6572113 C-18.60339682 29.81678588 -18.56312784 26.97754484 -18.519104 24.13743591 C-18.52101242 23.26943863 -18.52292084 22.40144135 -18.52488708 21.50714111 C-18.40854619 15.64750314 -17.24005767 11.17717685 -13.94488525 6.27415466 C-9.65510058 2.19885922 -5.93745683 0.03197819 0 0 Z " fill="#111111" transform="translate(669.9448852539063,324.72584533691406)"/>
</svg>
