<?xml version="1.0" encoding="UTF-8"?>
<svg version="1.1" xmlns="http://www.w3.org/2000/svg" width="1168" height="784" class="w-6 h-6" fill="#ea580c">
<path d="M0 0 C26.44604146 11.68686115 45.74754618 50.80349282 55.89697266 76.125 C62.36851694 92.99284095 67.4427552 111.86632549 68 130 C68.03867187 131.0511499 68.03867187 131.0511499 68.078125 132.12353516 C68.75619392 152.91906137 66.22613494 173.13374366 60 193 C59.79036621 193.67546875 59.58073242 194.3509375 59.36474609 195.046875 C51.93182777 218.30120914 37.76529054 238.49600892 21 256 C20.34773437 256.69222656 19.69546875 257.38445312 19.0234375 258.09765625 C14.18031987 263.10478384 9.00017546 268.41826261 3 272 C-1.48914861 271.38291753 -4.27686722 268.52308743 -7.5625 265.625 C-8.18237793 265.08262695 -8.80225586 264.54025391 -9.44091797 263.98144531 C-38.05775321 238.71268413 -55.14729312 207.20358137 -63 170 C-63.268125 168.74445313 -63.53625 167.48890625 -63.8125 166.1953125 C-71.28389093 122.09335213 -58.38030335 74.60705618 -33.12036133 38.17529297 C-23.27810457 24.44128324 -12.07235118 11.80407671 0 0 Z " transform="translate(583,227)"/>
<path d="M0 0 C21.72895149 4.49972837 43.34156275 14.50669782 61 28 C60.81751709 28.54019775 60.63503418 29.08039551 60.44702148 29.63696289 C52.61175164 52.96737465 47.58334889 75.50580485 45 100 C40.68731809 96.35214382 36.49005569 92.62162986 32.375 88.75 C20.58582918 77.89072614 7.76301407 69.51227079 -5.93798828 61.26171875 C-7.65017733 60.21405204 -9.32983714 59.11344191 -11 58 C-12.25379954 51.00998122 -10.46613053 43.33449773 -9.25 36.4375 C-9.07025635 35.39408447 -8.8905127 34.35066895 -8.70532227 33.27563477 C-4.64113641 10.21575919 -4.64113641 10.21575919 0 0 Z " transform="translate(452,263)"/>
<path d="M0 0 C5.96022713 14.3045451 9.64506098 31.3718003 10.83300781 46.83105469 C10.94527672 48.28923742 11.0930929 49.74507446 11.27441406 51.19628906 C11.46516206 53.60513394 11.47916298 55.627245 11 58 C8.574297 60.21023005 6.90121179 61.36591819 4.0625 62.8125 C2.58452872 63.65018293 1.10935382 64.49281498 -0.36328125 65.33984375 C-1.12979004 65.77151855 -1.89629883 66.20319336 -2.68603516 66.64794922 C-17.34956481 75.21585671 -30.94233384 86.39579584 -42.64453125 98.671875 C-44 100 -44 100 -45 100 C-45.12528076 99.03924561 -45.25056152 98.07849121 -45.37963867 97.08862305 C-48.19740953 75.6604155 -51.33270595 55.10082187 -58.984375 34.78515625 C-59.80875242 32.52445972 -60.48012624 30.34508273 -61 28 C-50.09090637 19.95642866 -38.50739346 13.23370876 -26 8 C-25.40509766 7.74976074 -24.81019531 7.49952148 -24.19726562 7.24169922 C-6.88719789 0 -6.88719789 0 0 0 Z " transform="translate(717,263)"/>
<path d="M0 0 C0.94875 0.73863281 1.8975 1.47726562 2.875 2.23828125 C13.41704077 10.66891897 23.23463187 19.72229722 32 30 C32.8353125 30.85851562 33.670625 31.71703125 34.53125 32.6015625 C43.21657769 42.30715458 45.22004675 53.55533441 48.22509766 65.97021484 C53.31121272 85.85637992 64.05081733 106.68027169 77.00390625 122.58203125 C78 124 78 124 78 126 C75.52161318 126.4835135 73.04240222 126.96187201 70.5625 127.4375 C69.87478516 127.57220703 69.18707031 127.70691406 68.47851562 127.84570312 C58.39106273 129.76935693 48.51813537 130.24085776 38.25 130.25 C37.56669617 130.25067474 36.88339233 130.25134949 36.17938232 130.25204468 C-9.47910609 130.18077614 -47.98907366 112.03394886 -81 81 C-81.69867188 80.36707031 -82.39734375 79.73414063 -83.1171875 79.08203125 C-113.18048919 50.82751742 -129.13924246 6.15990975 -130.921875 -34.2734375 C-130.94765625 -35.17320312 -130.9734375 -36.07296875 -131 -37 C-86.37320521 -44.69641523 -35.06137549 -27.41406017 0 0 Z " transform="translate(458,356)"/>
<path d="M0 0 C-0.09763071 34.61008609 -12.79019203 70.094919 -33 98 C-33.7115625 99.00804687 -34.423125 100.01609375 -35.15625 101.0546875 C-61.27945531 136.66932407 -101.3665765 159.25910203 -144.66015625 166.1171875 C-152.39640789 167.17000982 -160.08188264 167.39145106 -167.875 167.375 C-168.58268524 167.3764502 -169.29037048 167.37790039 -170.01950073 167.37939453 C-183.28504434 167.37641456 -196.02569981 165.83665467 -209 163 C-207.50196439 159.89040315 -205.74837963 157.11717051 -203.77636719 154.28149414 C-190.56509878 135.19490075 -182.50840237 115.15761574 -176.39453125 92.91015625 C-175.93278957 91.27255966 -175.46801052 89.63581604 -175 88 C-174.77787842 87.20916016 -174.55575684 86.41832031 -174.3269043 85.60351562 C-172.74767736 80.38739772 -170.66891675 76.54929868 -167.1875 72.375 C-166.71320557 71.79016846 -166.23891113 71.20533691 -165.75024414 70.6027832 C-148.81800659 50.03811847 -129.56126404 33.52923405 -106 21 C-105.09096924 20.5057251 -105.09096924 20.5057251 -104.16357422 20.00146484 C-73.77141427 3.55051831 -34.5409537 -6.04708573 0 0 Z " transform="translate(842,319)"/>
<path d="M0 0 C24.07001023 5.80583161 45.63022356 20.1635755 65 35 C43.86997882 61.26975607 11.4611182 78.51566712 -21 86 C-22.02383789 86.24556641 -22.02383789 86.24556641 -23.06835938 86.49609375 C-33.27532687 88.85981254 -43.35342641 89.27203038 -53.8125 89.3125 C-55.61811401 89.32083862 -55.61811401 89.32083862 -57.46020508 89.3293457 C-98.55261598 88.99956917 -135.87966158 68.71866354 -166.2578125 42.34765625 C-168.4537527 40.46765617 -170.6611867 38.69535988 -173 37 C-171.50789215 32.9713088 -168.80761604 29.95862625 -165 28 C-159.47643409 28.36086521 -154.28723845 29.57935429 -148.9375 30.9375 C-124.69828172 36.73771104 -99.45258425 36.82257871 -75 32 C-74.2589502 31.85546387 -73.51790039 31.71092773 -72.75439453 31.56201172 C-67.7825802 30.56010403 -62.88625917 29.35710237 -58 28 C-57.31470215 27.81131348 -56.6294043 27.62262695 -55.92333984 27.42822266 C-37.66527101 22.24257435 -13.68342315 13.68342315 0 0 Z " transform="translate(783,471)"/>
<path d="M0 0 C24.46977442 15.94659457 51.08203385 25.11726758 80 29 C80.70922607 29.1016748 81.41845215 29.20334961 82.14916992 29.30810547 C102.15834733 31.9026157 124.80836448 31.47186354 144.16015625 25.44140625 C156.83767535 21.51454952 156.83767535 21.51454952 160.96484375 23.23828125 C163.0153667 25.03654303 164.54351381 26.70222214 166 29 C164.42275993 33.18954394 161.33433019 35.63732803 158 38.4375 C157.38769531 38.95538086 156.77539062 39.47326172 156.14453125 40.00683594 C119.38613556 70.62048983 78.24080725 87.11953601 30.06835938 83.79785156 C-1.10006283 80.75001692 -32.65176106 66.86347223 -56 46 C-56.85722656 45.23816406 -57.71445312 44.47632813 -58.59765625 43.69140625 C-60.31466404 42.15140957 -62.02479529 40.60369673 -63.7265625 39.046875 C-65.6491671 37.31587017 -67.60402106 35.67548789 -69.625 34.0625 C-70.40875 33.381875 -71.1925 32.70125 -72 32 C-72 31.34 -72 30.68 -72 30 C-69.68605305 28.05093299 -67.36837565 26.23130135 -64.9375 24.4375 C-64.20942139 23.89883301 -63.48134277 23.36016602 -62.73120117 22.80517578 C-50.05287645 13.55487238 -36.59431544 6.49750697 -22.30078125 0.04785156 C-20.36281596 -0.83476166 -18.44446129 -1.76025203 -16.53125 -2.6953125 C-9.32926916 -5.91192754 -6.1839223 -4.49739804 0 0 Z " transform="translate(393,476)"/>
<path d="M0 0 C3.43925268 2.74026788 6.83061345 5.53455753 10.1875 8.375 C9.4965625 8.92285156 8.805625 9.47070312 8.09375 10.03515625 C4.92322193 12.58777226 1.79886863 15.18841068 -1.3125 17.8125 C-1.86808594 18.27720703 -2.42367187 18.74191406 -2.99609375 19.22070312 C-5.66198265 21.46945882 -8.15112004 23.72170507 -10.59375 26.22265625 C-12.8125 28.375 -12.8125 28.375 -14.8125 28.375 C-15.07804688 28.95765625 -15.34359375 29.5403125 -15.6171875 30.140625 C-16.84552996 32.43674228 -18.21564939 34.17856018 -19.9375 36.125 C-20.47632813 36.73859375 -21.01515625 37.3521875 -21.5703125 37.984375 C-21.98023438 38.44328125 -22.39015625 38.9021875 -22.8125 39.375 C-25.43747442 36.769221 -28.03697858 34.14876603 -30.58203125 31.46484375 C-38.63830689 23.06874169 -47.34488313 16.12022126 -56.8125 9.375 C-37.52024724 -10.29152927 -22.69139814 -17.39038244 0 0 Z " transform="translate(607.8125,533.625)"/>
</svg>
